<?xml version="1.0" encoding="utf-8"?>
<!-- Generator: Adobe Illustrator 17.0.1, SVG Export Plug-In . SVG Version: 6.00 Build 0)  -->
<!DOCTYPE svg PUBLIC "-//W3C//DTD SVG 1.1//EN" "http://www.w3.org/Graphics/SVG/1.1/DTD/svg11.dtd">
<svg version="1.1" id="Layer_1" xmlns="http://www.w3.org/2000/svg" xmlns:xlink="http://www.w3.org/1999/xlink" x="0px" y="0px"
	 width="841.89px" height="595.28px" viewBox="0 0 841.89 595.28" enable-background="new 0 0 841.89 595.28" xml:space="preserve">
<g>
	<path fill="#002969" d="M363.18,475.839h163.016c30.243,0,55.494-17.471,61.085-49.824H476.637l31.772-151.429h53.639
		c30.98,0,56.232-17.471,61.823-49.824l-105.007-0.007l31.9-152.036h55.322c30.98,0,56.232-17.471,61.823-49.824l-209.187-0.014
		L363.18,475.839L363.18,475.839z"/>
	<path fill="#002969" d="M253.695,406.69c-8.911,40.979-0.412,69.151,56.812,69.149l32.15,0.216L437.77,22.895h-30.98
		c-50.896,0-76.328,18.724-85.725,63.412L253.695,406.69L253.695,406.69z"/>
	<path fill-rule="evenodd" clip-rule="evenodd" fill="#002969" d="M370.81,530.619c5.794,0,10.491,4.697,10.491,10.491
		c0,5.794-4.697,10.491-10.491,10.491s-10.491-4.697-10.491-10.491C360.319,535.316,365.016,530.619,370.81,530.619L370.81,530.619z
		"/>
	<path fill="#002969" d="M120.533,571.867l13.73-61.601h14.543l-13.73,61.601H120.533L120.533,571.867z M182.776,571.867
		l-8.441-21.419l-4.577-13.188h-0.305l-7.628,34.607h-14.442l13.73-61.601h12.814l7.018,19.56c0.068,0.472,0.407,1.519,1.017,3.142
		c0.61,1.623,1.271,3.363,1.983,5.222c0.712,1.859,1.356,3.614,1.932,5.266c0.576,1.652,0.865,2.744,0.865,3.275h0.407l7.73-36.465
		h14.34l-13.73,61.601H182.776L182.776,571.867z M242.577,521.949l-11.187,49.918h-14.544l11.187-49.918h-14.95l2.542-11.683h44.444
		l-2.644,11.683H242.577L242.577,521.949z M253.459,571.867l13.73-61.601h40.783l-2.644,11.86H279.19l-2.949,12.745h22.578
		l-2.644,11.772h-22.578l-2.848,13.365h26.138l-2.644,11.86H253.459L253.459,571.867z M302.683,571.867l13.73-61.601h14.544
		l-10.984,49.564h26.138l-2.644,12.037H302.683L302.683,571.867z M400.318,571.867l13.73-61.601h40.783l-2.644,11.86h-26.138
		l-2.949,12.745h22.578l-2.644,11.772h-22.578l-2.848,13.365h26.138l-2.644,11.86H400.318L400.318,571.867z M484.833,571.867
		l-8.441-21.419l-4.577-13.188h-0.305l-7.628,34.607h-14.442l13.73-61.601h12.815l7.017,19.56c0.068,0.472,0.407,1.519,1.017,3.142
		c0.61,1.623,1.271,3.363,1.983,5.222c0.712,1.859,1.356,3.614,1.932,5.266c0.576,1.652,0.865,2.744,0.865,3.275h0.407l7.73-36.465
		h14.34l-13.73,61.601H484.833L484.833,571.867z M509.445,571.867l13.73-61.601h40.783l-2.644,11.86h-26.138l-2.949,12.745h22.578
		l-2.644,11.772h-22.578l-2.848,13.365h26.138l-2.644,11.86H509.445L509.445,571.867z M590.503,571.867l-5.695-24.34h-6.204
		l-5.39,24.34H558.67l13.73-61.601h22.07c5.984,0,10.696,1.313,14.154,3.939c3.441,2.626,5.068,6.712,4.865,12.258
		c-0.136,5.016-1.542,9.057-4.204,12.125s-6.034,5.281-10.136,6.638l7.068,26.641H590.503L590.503,571.867z M599.351,527.879
		c0.136-2.183-0.475-3.717-1.831-4.602c-1.356-0.885-3.153-1.328-5.39-1.328H584.4l-3.153,13.896h7.831
		c1.288,0,2.56-0.133,3.814-0.398c1.254-0.266,2.356-0.708,3.305-1.328c0.949-0.62,1.712-1.446,2.288-2.478
		C599.063,530.608,599.351,529.354,599.351,527.879L599.351,527.879z M636.371,572.398c-4.407,0-7.984-0.59-10.73-1.77
		c-2.746-1.18-4.848-2.773-6.306-4.779c-1.458-2.006-2.322-4.278-2.594-6.815c-0.271-2.537-0.102-5.192,0.508-7.966l3.865-17.436
		c0.678-3.068,1.593-6.033,2.746-8.895c1.153-2.862,2.712-5.399,4.678-7.612c1.966-2.213,4.424-3.983,7.374-5.311
		c2.949-1.328,6.594-1.991,10.933-1.991c3.051,0,5.814,0.398,8.289,1.195c2.475,0.797,4.611,1.888,6.407,3.275
		c1.797,1.387,3.204,3.039,4.221,4.956c1.017,1.918,1.627,3.998,1.831,6.24l-14.035,3.452c-0.136-0.885-0.39-1.741-0.763-2.567
		c-0.373-0.826-0.864-1.564-1.475-2.213c-0.61-0.649-1.373-1.18-2.288-1.593s-1.949-0.62-3.102-0.62
		c-1.695,0-3.102,0.31-4.221,0.929c-1.119,0.62-2.034,1.46-2.746,2.523c-0.712,1.062-1.305,2.272-1.78,3.629
		c-0.475,1.357-0.881,2.744-1.22,4.16l-4.577,20.18c-0.203,0.885-0.288,1.755-0.254,2.611c0.034,0.855,0.288,1.593,0.763,2.213
		c0.475,0.62,1.17,1.121,2.085,1.505c0.915,0.383,2.187,0.575,3.814,0.575c1.492,0,2.814-0.28,3.966-0.841
		c1.153-0.561,2.153-1.283,3-2.169c0.847-0.885,1.542-1.873,2.085-2.965c0.542-1.092,0.949-2.198,1.22-3.319l0.61-2.478h-9.458
		l2.441-10.886h24.104l-2.949,14.073c-0.746,3.068-1.831,5.871-3.255,8.408c-1.424,2.537-3.221,4.72-5.39,6.55
		c-2.17,1.829-4.729,3.245-7.679,4.248C643.541,571.896,640.168,572.398,636.371,572.398L636.371,572.398z M716.106,552.484
		c-0.678,3.068-1.627,5.827-2.848,8.276c-1.22,2.449-2.78,4.543-4.678,6.284c-1.899,1.741-4.187,3.068-6.865,3.983
		c-2.678,0.915-5.78,1.372-9.306,1.372c-4.611,0-8.424-0.605-11.442-1.814c-3.017-1.21-5.373-2.847-7.068-4.912
		c-1.695-2.065-2.763-4.44-3.204-7.125c-0.441-2.685-0.322-5.502,0.356-8.452l4.78-20.534c0.475-2.301,1.288-4.617,2.441-6.948
		c1.153-2.331,2.712-4.44,4.678-6.328c1.966-1.888,4.407-3.437,7.322-4.647c2.916-1.21,6.441-1.814,10.577-1.814
		c3.865,0,7.204,0.605,10.018,1.814c2.814,1.21,5.051,2.817,6.712,4.824c1.661,2.006,2.78,4.278,3.356,6.815
		c0.576,2.537,0.559,5.163-0.051,7.877L716.106,552.484L716.106,552.484z M706.342,529.56c0.136-0.708,0.136-1.475,0-2.301
		c-0.136-0.826-0.474-1.623-1.017-2.39c-0.542-0.767-1.305-1.401-2.288-1.903s-2.221-0.752-3.712-0.752
		c-1.492,0-2.746,0.221-3.763,0.664c-1.017,0.443-1.865,1.003-2.543,1.682c-0.678,0.679-1.203,1.416-1.576,2.213
		c-0.373,0.797-0.627,1.549-0.763,2.257l-4.984,22.392c-0.61,2.832-0.288,4.971,0.966,6.417c1.254,1.446,3.339,2.168,6.255,2.168
		c2.102,0,3.865-0.59,5.288-1.77c1.424-1.18,2.373-2.803,2.848-4.868L706.342,529.56L706.342,529.56z"/>
</g>
</svg>
